<svg xmlns="http://www.w3.org/2000/svg" width="21.021" height="21.863" viewBox="0 0 21.021 21.863">
  <g id="Assign_Booklet" data-name="Assign Booklet" transform="translate(-33.548 -35.273)">
    <path id="Path_20187" data-name="Path 20187" d="M88.6,56.828H75.988a.42.42,0,0,0-.42.42v3.784H68.42a.42.42,0,0,0-.42.42V78.27a.42.42,0,0,0,.42.42H81.033a.42.42,0,0,0,.42-.42V74.486H88.6a.42.42,0,0,0,.42-.42V57.248A.42.42,0,0,0,88.6,56.828ZM76.409,58.146l3.463,2.886H76.409Zm7.147,2.466a1.682,1.682,0,1,1,1.682,1.682A1.684,1.684,0,0,1,83.556,60.612Zm-.39,1.436a1.728,1.728,0,0,1-1.713.013v-.609a.413.413,0,0,0-.155-.319l0,0-.684-.57a1.676,1.676,0,0,1,2.548-1.384,2.511,2.511,0,0,0,0,2.873Zm-2.553,15.8H68.841V61.873H80.613Zm7.568-4.2H81.454V70.7H84.4a.42.42,0,1,0,0-.841H81.454V66.077H86.5a.42.42,0,0,0,0-.841H81.454V62.985a2.459,2.459,0,0,0,2.307-.332,2.523,2.523,0,1,0,0-4.081,2.5,2.5,0,0,0-3.893,1.362l-2.718-2.265H88.181Z" transform="translate(-34.452 -21.555)" fill="#74757d"/>
    <path id="Path_20188" data-name="Path 20188" d="M233.148,180.828h-.765a.383.383,0,0,0,0,.765h.765a.383.383,0,0,0,0-.765Z" transform="translate(-180.873 -131.726)" fill="#74757d"/>
    <path id="Path_20191" data-name="Path 20191" d="M88.383,121.593h3.06a.383.383,0,0,0,0-.765h-3.06a.383.383,0,1,0,0,.765Z" transform="translate(-50.645 -77.464)" fill="#74757d"/>
    <path id="Path_20192" data-name="Path 20192" d="M88.383,133.593h5.355a.383.383,0,1,0,0-.765H88.383a.383.383,0,1,0,0,.765Z" transform="translate(-50.645 -88.316)" fill="#74757d"/>
    <path id="Path_20193" data-name="Path 20193" d="M88.383,165.593H90.3a.383.383,0,0,0,0-.765H88.383a.383.383,0,1,0,0,.765Z" transform="translate(-50.645 -117.256)" fill="#74757d"/>
    <path id="Path_20194" data-name="Path 20194" d="M120,165.211a.382.382,0,0,0,.383.383h4.59a.383.383,0,0,0,0-.765h-4.59A.382.382,0,0,0,120,165.211Z" transform="translate(-79.584 -117.256)" fill="#74757d"/>
    <path id="Path_20195" data-name="Path 20195" d="M98.121,191.123H96.59v-1.913a.382.382,0,0,0-.383-.383H94.3a.382.382,0,0,0-.383.383v1.148h-1.53a.382.382,0,0,0-.383.383v2.678a.382.382,0,0,0,.383.383h5.738a.382.382,0,0,0,.383-.383v-1.913A.382.382,0,0,0,98.121,191.123Zm-3.443-1.53h1.148v3.443H94.678v-3.443Zm-1.913,1.53h1.148v1.913H92.765Zm4.973,1.913H96.59v-1.148h1.148Z" transform="translate(-54.262 -138.961)" fill="#74757d"/>
    <path id="Path_20196" data-name="Path 20196" d="M164.383,192.828a.382.382,0,0,0-.383.383v3.825a.383.383,0,0,0,.765,0v-3.825A.382.382,0,0,0,164.383,192.828Z" transform="translate(-119.376 -142.578)" fill="#74757d"/>
  </g>
</svg>
