<svg xmlns="http://www.w3.org/2000/svg" width="18.578" height="23.645" viewBox="0 0 18.578 23.645">
  <path id="Booket-1" d="M11.822,6.756a1.689,1.689,0,0,0,1.689-1.689V3.378A3.378,3.378,0,0,0,10.133,0H8.445A3.378,3.378,0,0,0,5.067,3.378V5.067A1.689,1.689,0,0,0,6.756,6.756ZM6.756,3.378A1.689,1.689,0,0,1,8.445,1.689h1.689a1.689,1.689,0,0,1,1.689,1.689V5.067H6.756ZM1.689,5.911a.844.844,0,0,1,.844-.844h.844a.844.844,0,1,0,0-1.689H2.533A2.533,2.533,0,0,0,0,5.911v15.2a2.533,2.533,0,0,0,2.533,2.533H16.045a2.533,2.533,0,0,0,2.533-2.533V5.911a2.533,2.533,0,0,0-2.533-2.533H15.2a.844.844,0,0,0,0,1.689h.844a.844.844,0,0,1,.844.844v15.2a.844.844,0,0,1-.844.844H2.533a.844.844,0,0,1-.844-.844Zm1.689,5.911a.844.844,0,0,1,.844-.844H14.356a.844.844,0,0,1,0,1.689H4.222A.844.844,0,0,1,3.378,11.822ZM4.222,15.2a.844.844,0,1,0,0,1.689h5.911a.844.844,0,0,0,0-1.689Z" fill="#fff" fill-rule="evenodd"/>
</svg>
