<svg xmlns="http://www.w3.org/2000/svg" xmlns:xlink="http://www.w3.org/1999/xlink" width="42.011" height="41.925" viewBox="0 0 42.011 41.925">
  <defs>
    <filter id="Path_12202" x="0" y="0" width="42.011" height="41.925" filterUnits="userSpaceOnUse">
      <feOffset dy="3" input="SourceAlpha"/>
      <feGaussianBlur stdDeviation="3" result="blur"/>
      <feFlood flood-opacity="0.161"/>
      <feComposite operator="in" in2="blur"/>
      <feComposite in="SourceGraphic"/>
    </filter>
  </defs>
  <g id="Delete" transform="translate(9 6)">
    <g transform="matrix(1, 0, 0, 1, -9, -6)" filter="url(#Path_12202)">
      <g id="Path_12202-2" data-name="Path 12202" transform="translate(9 6)" fill="none">
        <path d="M12.006,0A11.962,11.962,0,1,1,0,11.962,11.984,11.984,0,0,1,12.006,0Z" stroke="none"/>
        <path d="M 12.00556564331055 0.5 C 8.931975364685059 0.5 6.042446136474609 1.692529678344727 3.869266510009766 3.857898712158203 C 1.696556091308594 6.022800445556641 0.4999961853027344 8.901039123535156 0.4999961853027344 11.9624195098877 C 0.4999961853027344 15.02379989624023 1.696556091308594 17.90203857421875 3.869266510009766 20.06694030761719 C 6.042446136474609 22.23230934143066 8.931975364685059 23.42483901977539 12.00556564331055 23.42483901977539 C 15.07915592193604 23.42483901977539 17.96868515014648 22.23230934143066 20.14186477661133 20.06694030761719 C 22.3145751953125 17.90203857421875 23.51113510131836 15.02379989624023 23.51113510131836 11.9624195098877 C 23.51113510131836 8.901039123535156 22.3145751953125 6.022800445556641 20.14186477661133 3.857898712158203 C 17.96868515014648 1.692529678344727 15.07915592193604 0.5 12.00556564331055 0.5 M 12.00556564331055 0 C 18.63605499267578 0 24.01113510131836 5.355758666992188 24.01113510131836 11.9624195098877 C 24.01113510131836 18.5690803527832 18.63605499267578 23.92483901977539 12.00556564331055 23.92483901977539 C 5.375076293945312 23.92483901977539 -3.814697265625e-06 18.5690803527832 -3.814697265625e-06 11.9624195098877 C -3.814697265625e-06 5.355758666992188 5.375076293945312 0 12.00556564331055 0 Z" stroke="none" fill="#ff003a"/>
      </g>
    </g>
    <path id="Icon_material-delete" data-name="Icon material-delete" d="M8.167,15.165A1.337,1.337,0,0,0,9.5,16.5h5.332a1.337,1.337,0,0,0,1.333-1.333v-8h-8Zm8.665-10H14.5L13.832,4.5H10.5l-.667.667H7.5V6.5h9.332Z" transform="translate(-0.04 1.464)" fill="#ff003a"/>
  </g>
</svg>
