<svg xmlns="http://www.w3.org/2000/svg" width="5725.33" height="5954.342" viewBox="0 0 5725.33 5954.342">
  <g id="flyer" transform="translate(-33.498 -35.223)">
    <path id="Path_20187" data-name="Path 20187" d="M5678.726,56.828H2243.588a114.473,114.473,0,0,0-114.5,114.5V1201.875H182.506A114.474,114.474,0,0,0,68,1316.379V5896.563A114.476,114.476,0,0,0,182.506,6011.07H3617.645a114.477,114.477,0,0,0,114.507-114.506V4866.024H5678.726a114.471,114.471,0,0,0,114.5-114.506V171.332A114.47,114.47,0,0,0,5678.726,56.828Zm-3320.632,359,943.258,786.046H2358.094Zm1946.579,671.54c0-252.54,205.421-458.019,458.018-458.019s458.017,205.479,458.017,458.019-205.421,458.02-458.017,458.02S4304.673,1339.911,4304.673,1087.37Zm-106.089,391.147c-140.612,83.361-324.022,85.249-466.433,3.664v-165.8c0-35.354-16.951-65.782-42.139-86.765l.971-1.176-186.413-155.353c7.757-245.812,208.858-443.734,456.557-443.734a457.681,457.681,0,0,1,237.513,66.785c-77.319,111.127-122.976,245.869-122.976,391.234C4075.664,1232.7,4121.292,1367.393,4198.584,1478.517ZM3503.14,5782.059H297.011V1430.884H3503.14ZM5564.221,4637.013H3732.151V3835.483h801.531a114.505,114.505,0,1,0,0-229.011H3732.151V2575.93H5106.2a114.5,114.5,0,0,0,0-229.009H3732.151V1733.605c73.166,25.934,150.056,40.791,229.007,40.791,144.16,0,282.971-47.719,399.308-131.222,113.216,82.16,251.936,131.222,402.225,131.222,378.84,0,687.029-308.188,687.029-687.026S5141.531,400.342,4762.69,400.342c-150.316,0-289.066,49.095-402.284,131.28-116.337-83.5-254.86-131.28-399.249-131.28-314.8,0-580.11,213.036-661.092,502.332L2559.878,285.837H5564.221Z" transform="translate(-34.452 -21.555)" fill="#74757d" stroke="#fff" stroke-width="0.1"/>
    <path id="Path_20188" data-name="Path 20188" d="M544.557,180.828H336.188a104.185,104.185,0,1,0,0,208.369H544.557a104.185,104.185,0,0,0,0-208.369Z" transform="translate(4589.125 3620.825)" fill="#74757d" stroke="#fff" stroke-width="0.1"/>
    <path id="Path_20191" data-name="Path 20191" d="M192.185,329.193h833.47a104.182,104.182,0,1,0,0-208.365H192.185a104.182,104.182,0,1,0,0,208.365Z" transform="translate(982.512 2118.072)" fill="#74757d" stroke="#fff" stroke-width="0.1"/>
    <path id="Path_20192" data-name="Path 20192" d="M192.185,341.2H1650.755a104.185,104.185,0,1,0,0-208.369H192.185a104.185,104.185,0,1,0,0,208.369Z" transform="translate(982.512 2418.622)" fill="#74757d" stroke="#fff" stroke-width="0.1"/>
    <path id="Path_20193" data-name="Path 20193" d="M192.185,373.2H713.1a104.185,104.185,0,0,0,0-208.369H192.185a104.185,104.185,0,1,0,0,208.369Z" transform="translate(982.512 3220.092)" fill="#74757d" stroke="#fff" stroke-width="0.1"/>
    <path id="Path_20194" data-name="Path 20194" d="M120,269.013A104.157,104.157,0,0,0,224.185,373.2H1474.391a104.185,104.185,0,0,0,0-208.369H224.185A104.157,104.157,0,0,0,120,269.013Z" transform="translate(1783.982 3220.092)" fill="#74757d" stroke="#fff" stroke-width="0.1"/>
    <path id="Path_20195" data-name="Path 20195" d="M1758.938,813.927H1342.2V293.013A104.153,104.153,0,0,0,1238.02,188.828H717.1A104.152,104.152,0,0,0,612.919,293.013V605.566H196.185A104.15,104.15,0,0,0,92,709.747V1439.03a104.154,104.154,0,0,0,104.185,104.185H1758.938a104.156,104.156,0,0,0,104.187-104.185V918.111A104.161,104.161,0,0,0,1758.938,813.927ZM821.286,397.2h312.552V1334.85H821.286V397.2ZM300.367,813.927H612.919V1334.85H300.367ZM1654.754,1334.85H1342.2V1022.3h312.55Z" transform="translate(1082.694 3821.194)" fill="#74757d" stroke="#fff" stroke-width="0.1"/>
    <path id="Path_20196" data-name="Path 20196" d="M268.185,192.828A104.155,104.155,0,0,0,164,297.013V1338.846a104.185,104.185,0,0,0,208.369,0V297.013A104.153,104.153,0,0,0,268.185,192.828Z" transform="translate(2886.002 3921.379)" fill="#74757d" stroke="#fff" stroke-width="0.1"/>
  </g>
</svg>
