<svg width="24" height="24" viewBox="0 0 24 24" fill="none" xmlns="http://www.w3.org/2000/svg">
<path d="M12.364 5.20971e-06C10.0626 5.20971e-06 7.81295 0.682445 5.89942 1.96102C3.98589 3.2396 2.49447 5.0569 1.61377 7.1831C0.733069 9.3093 0.502637 11.6489 0.951615 13.9061C1.40059 16.1632 2.50881 18.2366 4.13614 19.8639C5.76346 21.4912 7.8368 22.5994 10.094 23.0484C12.3511 23.4974 14.6907 23.267 16.8169 22.3863C18.9431 21.5056 20.7604 20.0142 22.039 18.1006C23.3176 16.1871 24 13.9374 24 11.636C24.0015 10.1075 23.7015 8.59379 23.1172 7.18139C22.533 5.76899 21.6759 4.48567 20.5952 3.40488C19.5144 2.32409 18.231 1.46705 16.8186 0.882796C15.4063 0.298545 13.8925 -0.00144177 12.364 5.20971e-06ZM18.182 15.813L16.541 17.454L12.364 13.277L8.18703 17.454L6.54603 15.813L10.728 11.636L6.54603 7.459L8.18703 5.81801L12.364 10L16.541 5.82301L18.182 7.464L14.005 11.641L18.182 15.813Z" fill="#E11111"/>
</svg>
