<svg xmlns="http://www.w3.org/2000/svg" xmlns:xlink="http://www.w3.org/1999/xlink" width="42.011" height="41.925" viewBox="0 0 42.011 41.925">
  <defs>
    <filter id="Path_12202" x="0" y="0" width="42.011" height="41.925" filterUnits="userSpaceOnUse">
      <feOffset dy="3" input="SourceAlpha"/>
      <feGaussianBlur stdDeviation="3" result="blur"/>
      <feFlood flood-opacity="0.161"/>
      <feComposite operator="in" in2="blur"/>
      <feComposite in="SourceGraphic"/>
    </filter>
  </defs>
  <g id="Task" transform="translate(9 6)">
    <g transform="matrix(1, 0, 0, 1, -9, -6)" filter="url(#Path_12202)">
      <g id="Path_12202-2" data-name="Path 12202" transform="translate(9 6)" fill="none">
        <path d="M12.006,0A11.962,11.962,0,1,1,0,11.962,11.984,11.984,0,0,1,12.006,0Z" stroke="none"/>
        <path d="M 12.00556564331055 0.5 C 8.931975364685059 0.5 6.042446136474609 1.692529678344727 3.869266510009766 3.857898712158203 C 1.696556091308594 6.022800445556641 0.4999961853027344 8.901039123535156 0.4999961853027344 11.9624195098877 C 0.4999961853027344 15.02379989624023 1.696556091308594 17.90203857421875 3.869266510009766 20.06694030761719 C 6.042446136474609 22.23230934143066 8.931975364685059 23.42483901977539 12.00556564331055 23.42483901977539 C 15.07915592193604 23.42483901977539 17.96868515014648 22.23230934143066 20.14186477661133 20.06694030761719 C 22.3145751953125 17.90203857421875 23.51113510131836 15.02379989624023 23.51113510131836 11.9624195098877 C 23.51113510131836 8.901039123535156 22.3145751953125 6.022800445556641 20.14186477661133 3.857898712158203 C 17.96868515014648 1.692529678344727 15.07915592193604 0.5 12.00556564331055 0.5 M 12.00556564331055 0 C 18.63605499267578 0 24.01113510131836 5.355758666992188 24.01113510131836 11.9624195098877 C 24.01113510131836 18.5690803527832 18.63605499267578 23.92483901977539 12.00556564331055 23.92483901977539 C 5.375076293945312 23.92483901977539 -3.814697265625e-06 18.5690803527832 -3.814697265625e-06 11.9624195098877 C -3.814697265625e-06 5.355758666992188 5.375076293945312 0 12.00556564331055 0 Z" stroke="none" fill="#1167b1"/>
      </g>
    </g>
    <g id="clipboard_1_" data-name="clipboard (1)" transform="translate(-44.373 5.677)">
      <g id="Group_19214" data-name="Group 19214" transform="translate(51.988 0.001)">
        <g id="Group_19213" data-name="Group 19213" transform="translate(0 0)">
          <path id="Path_20209" data-name="Path 20209" d="M139.74.944h-.911a.256.256,0,0,1-.24-.192A.927.927,0,0,0,137.647,0a.943.943,0,0,0-.943.767.24.24,0,0,1-.24.176h-.879v1.6h4.155Z" transform="translate(-133.028 -0.001)" fill="#1167b1"/>
          <path id="Path_20210" data-name="Path 20210" d="M61.257,71.947V62.79a.655.655,0,0,0-.653-.657l-.05,0H59.18v.815c0,.128-.08.3-.208.3H54.257c-.128,0-.192-.176-.192-.3v-.815H52.691a.655.655,0,0,0-.7.606q0,.025,0,.05v9.157a.719.719,0,0,0,.7.735h7.863a.719.719,0,0,0,.7-.735Zm-5.929-2.109L54.082,71a.224.224,0,0,1-.16.08.256.256,0,0,1-.176-.08l-.655-.671A.243.243,0,0,1,53.442,70l.479.511,1.087-1.023a.24.24,0,0,1,.32.352Zm0-2.557h0l-1.247,1.167a.224.224,0,0,1-.16.08.256.256,0,0,1-.176-.08l-.655-.671a.243.243,0,0,1,.352-.336l.479.511,1.087-1.023a.24.24,0,0,1,.32.352Zm0-2.557L54.082,65.89a.224.224,0,0,1-.16.08.256.256,0,0,1-.176-.08l-.655-.671a.243.243,0,0,1,.352-.336l.479.511,1.087-1.023a.24.24,0,0,1,.32.352Zm4.651,6.041H56.3a.24.24,0,0,1,0-.479h3.676a.24.24,0,0,1,0,.479Zm0-2.557H56.3a.24.24,0,0,1,0-.479h3.676a.24.24,0,0,1,0,.479Zm0-2.557H56.3a.24.24,0,0,1,0-.479h3.676a.24.24,0,0,1,0,.479Z" transform="translate(-51.988 -60.232)" fill="#1167b1"/>
        </g>
      </g>
    </g>
  </g>
</svg>
