<svg id="User-1" xmlns="http://www.w3.org/2000/svg" width="21.116" height="22.659" viewBox="0 0 21.116 22.659">
  <g id="Group_16770" data-name="Group 16770" transform="translate(0 12.763)">
    <g id="Group_16769" data-name="Group 16769">
      <path id="Path_15329" data-name="Path 15329" d="M28,288.389c-6.808,0-10.558,3.221-10.558,9.069a.827.827,0,0,0,.827.827H37.729a.827.827,0,0,0,.827-.827C38.556,291.61,34.806,288.389,28,288.389Zm-8.874,8.242c.325-4.373,3.307-6.588,8.874-6.588s8.549,2.216,8.874,6.588Z" transform="translate(-17.44 -288.389)" fill="#fff"/>
    </g>
  </g>
  <g id="Group_16772" data-name="Group 16772" transform="translate(5.072)">
    <g id="Group_16771" data-name="Group 16771">
      <path id="Path_15330" data-name="Path 15330" d="M137.535,0a5.42,5.42,0,0,0-5.486,5.6,5.5,5.5,0,1,0,10.971,0A5.42,5.42,0,0,0,137.535,0Zm0,9.9A4.091,4.091,0,0,1,133.7,5.6a3.761,3.761,0,0,1,3.832-3.942A3.8,3.8,0,0,1,141.366,5.6,4.091,4.091,0,0,1,137.535,9.9Z" transform="translate(-132.049)" fill="#fff"/>
    </g>
  </g>
</svg>
