<svg width="25" height="25" viewBox="0 0 25 25" fill="none" xmlns="http://www.w3.org/2000/svg">
<path d="M12.0105 0.619019C8.93686 0.619019 6.04733 1.81155 3.87415 3.97692C1.70144 6.14182 0.504883 9.02006 0.504883 12.0814C0.504883 15.1428 1.70144 18.0211 3.87415 20.186C6.04733 22.3513 8.93686 23.5439 12.0105 23.5439C15.084 23.5439 17.9736 22.3513 20.1468 20.186C22.3195 18.0211 23.516 15.1428 23.516 12.0814C23.516 9.02006 22.3195 6.14182 20.1468 3.97692C17.9736 1.81155 15.084 0.619019 12.0105 0.619019ZM12.0105 0.119019C18.6409 0.119019 24.016 5.47478 24.016 12.0814C24.016 18.6881 18.6409 24.0439 12.0105 24.0439C5.37996 24.0439 0.00488281 18.6881 0.00488281 12.0814C0.00488281 5.47478 5.37996 0.119019 12.0105 0.119019Z" fill="#FF003A"/>
</svg>
